<svg xmlns="http://www.w3.org/2000/svg" viewBox="151.89 669.64 338.90 187.37"><path fill="#b65f17" fill-rule="evenodd" d="M433.88,737.3c-2.27-.7-6.24-.8-7.21,1.65-.91,2.45,2.33,4.5,4.6,5.15,2.27.65,6.24.8,7.15-1.65.96-2.45-2.33-4.5-4.54-5.15h0Z"/><path fill="#e32013" fill-rule="evenodd" d="M414.07,733.95c-3.01-.85-8.51-1.15-9.82,2.15-1.25,3.3,3.41,6,6.36,6.85,2.95.9,8.51,1.2,9.76-2.1,1.25-3.3-3.35-6-6.3-6.9h0Z"/><path fill="#fab600" fill-rule="evenodd" d="M429.9,721.75c-3.86-1.15-10.84-1.7-13.17,2.1-.11.2-.23.45-.28.65-.11.2-.17.45-.17.7-.79,4.2,5.17,7.55,8.97,8.65,3.86,1.15,10.9,1.7,13.17-2.1.11-.2.23-.45.34-.65.06-.2.11-.45.17-.7.74-4.2-5.17-7.55-9.03-8.65h0Z"/><path fill="#89bd23" fill-rule="evenodd" d="M374.39,728c-3.24-.95-9.48-1.35-10.9,2.3-1.42,3.7,3.86,6.7,7.1,7.7,3.29.95,9.54,1.3,10.96-2.35,1.36-3.65-3.86-6.7-7.15-7.65h0Z"/><path fill="#ee7a00" fill-rule="evenodd" d="M362.19,711.29c-3.88-1.63-11.27-2.99-14.13.73-.14.24-.27.42-.41.66-.08.24-.22.43-.25.68-1.33,4.38,4.6,8.6,8.54,10.24,3.93,1.64,11.27,2.99,14.13-.73.19-.18.33-.42.41-.66.13-.19.22-.43.3-.67,1.28-4.39-4.66-8.56-8.59-10.24h0Z"/><path fill="#711a55" fill-rule="evenodd" d="M424.85,689.61c2.88-.63,5.98,1.04,6.91,3.71.93,2.67-.66,5.36-3.54,5.99-2.88.63-5.93-1.05-6.86-3.73-.93-2.67.61-5.35,3.49-5.98h0Z"/><path fill="#711a55" fill-rule="evenodd" d="M390.94,708.7c1.76-2.19,10.91-5.73,13.81-6.63,5.43-1.71,17.16-4.43,19.23,3.53l.03.1c.16,1.14.06,2.33-.44,3.34-3.63,7.55-25.14,2.92-31.86,1.4-.44-.12-.76-.37-.88-.71-.17-.33-.13-.72.1-1.03h0Z"/><path fill="#711a55" fill-rule="evenodd" d="M379.35,708.35c3.25-11.3,11.49-27.37,22.78-33.34-.02-.05.04-.06.04-.06,12.63-5.73,26.55,8.76,11.32,16.76-4.55,2.43-10.16,3.6-15.04,5.56-7.07,2.76-12.31,6.67-17.01,12.12-.32.39-.93.47-1.47.21-.49-.27-.74-.8-.61-1.25h0Z"/><path fill="#78604e" fill-rule="evenodd" d="M470.55,729.2c3.29,2.7,5.73,6.6,6.93,10.35,1.93,6.2.74,12.35-2.33,18.05-.17.45-.11.9.28,1.2.34.35.91.4,1.36.2,5.34-2.35,9.25-9.15,9.88-14.2,1.14-9-5.9-14.6-14.93-17.35-.57-.15-1.14.05-1.42.45-.28.45-.23,1,.23,1.3h0Z"/><path fill="#3f2d20" fill-rule="evenodd" d="M429.19,773.22c-2.07,2.26-4.07,4.59-6.55,6.4-6.16,2-12.73,3.12-19.24,3.48-10.77.59-21.67-.73-31.84-3.9-.19-.06-.38-.13-.57-.19-1.95-.78-3.85-1.68-5.69-2.7-6.8-3.79-12.11-9.1-17.7-14.12-2.92-4.09-5.49-8.37-8.71-12.28,4.25,1.67,8.4,3.06,11.67,4.04,5.45,1.6,11.64,3.15,17.71,4.05-14.82-4.85-30.88-11.6-41.72-20.71-6.98-5.85-13.51-14.5-10.1-23.36,2.1-5.55,7.49-9.6,13.45-11.8,7.95-3,17.03-2.95,25.32-1.15.62.15.97.65.91,1.15-.06.55-.57.95-1.19.95-6.7,0-20.66.75-22.99,7.9-1.76,5.45,3.75,11.75,7.83,15.3,10.05,8.7,27.64,14.25,40.81,18.55,14.76,4.25,32.07,6.3,47.51,4.8,7.78-.7,22.99-3.35,25.77-11.05,3.35-9.25-13.85-19.86-20.89-23.86-.45-.3-.68-.85-.4-1.3.23-.5.79-.75,1.36-.6,18.59,4.46,34.61,14.8,35.81,32.64-1.1,2.28-3.27,4.11-5.47,5.59-5.97,4.01-13.14,6.39-19.64,9.61-6.25,3.1-10.99,7.66-15.45,12.54Z"/><path fill="#599540" d="M187.09,710.89c0,.97-.47,1.56-1.4,1.79-.94.23-2,.35-3.19.39s-2.36.16-3.53.39c-1.16.23-1.97.82-2.42,1.79s-.82,2.14-1.11,3.53c-.29,1.39-.53,2.9-.73,4.54-.19,1.64-.32,3.35-.38,5.12-.07,1.77-.1,3.53-.1,5.27,0,4,.13,8.28.38,12.85.71-.19,1.61-.42,2.71-.68.9-.19,2.03-.42,3.38-.68,1.36-.26,2.96-.55,4.83-.87,1.93-.26,3.46-.26,4.59,0,1.13.26,1.88.63,2.27,1.11.38.48.4,1,.05,1.55-.36.55-1.05.92-2.08,1.11-2.12.52-4.12,1.08-5.99,1.69-1.87.61-3.51,1.21-4.93,1.79-1.68.71-3.16,1.39-4.45,2.03.32,4.96.45,9.47.38,13.53,0,1.74-.05,3.5-.14,5.27-.1,1.77-.24,3.4-.44,4.88-.19,1.48-.47,2.77-.82,3.87-.36,1.09-.76,1.87-1.21,2.32-.9.84-1.88,1.56-2.95,2.17s-2.06,1.02-3,1.21c-.93.19-1.75.14-2.46-.14-.71-.29-1.16-.92-1.36-1.89-.13-.52-.23-1.3-.29-2.37-.07-1.06-.11-2.26-.14-3.58-.03-1.32-.03-2.75,0-4.3.03-1.55.05-3.06.05-4.54.06-3.54.13-7.38.19-11.5-.26.13-.52.29-.77.49-.58.38-1.39.61-2.42.68-1.42.19-2.48-.19-3.19-1.16-.71-.97-.71-2.25,0-3.86.32-.77.79-1.48,1.4-2.13s1.27-1.22,1.98-1.74c.77-.58,1.64-1.06,2.61-1.45-.32-4.96-.42-9.73-.29-14.3,0-1.93.07-3.93.19-5.99.13-2.06.32-4.07.58-6.04s.58-3.82.97-5.56.87-3.25,1.45-4.54c.97-2.13,2.17-3.72,3.62-4.78,1.45-1.06,2.98-1.72,4.59-1.98,1.61-.26,3.22-.24,4.83.05,1.61.29,3.06.73,4.35,1.3,1.29.58,2.33,1.19,3.14,1.84.8.64,1.21,1.16,1.21,1.55Z"/><path fill="#599540" d="M212.7,738.83c2.96,1.8,5.25,4.01,6.86,6.62,1.61,2.61,2.66,5.35,3.14,8.21.49,2.87.4,5.72-.24,8.55-.65,2.83-1.73,5.4-3.24,7.68-1.51,2.29-3.43,4.17-5.75,5.65-2.32,1.48-4.97,2.26-7.93,2.32-3.74.06-6.88-.76-9.42-2.47-2.55-1.71-4.49-3.88-5.85-6.52-1.35-2.64-2.14-5.52-2.37-8.65-.22-3.12.11-6.05,1.02-8.79.9-2.74,2.38-5.07,4.45-7.01,2.06-1.93,4.64-2.99,7.73-3.19,2.84-.19,4.9-.5,6.19-.92,1.29-.42,2.22-.8,2.81-1.16.58-.35.98-.59,1.21-.72s.69,0,1.4.39ZM201.4,747.23c-.39.39-.71,1.32-.97,2.8-.26,1.48-.44,3.22-.53,5.22-.1,2-.08,4.09.05,6.28.13,2.19.37,4.19.73,5.99.35,1.81.85,3.28,1.5,4.45.64,1.16,1.42,1.68,2.32,1.55.9-.13,1.77-.73,2.61-1.79.84-1.06,1.6-2.38,2.27-3.96s1.22-3.32,1.64-5.22c.42-1.9.67-3.75.77-5.56.1-1.8-.02-3.45-.34-4.93s-.87-2.61-1.64-3.38c-1.8-1.87-3.33-2.88-4.59-3.04-1.25-.16-2.53.37-3.82,1.6Z"/><path fill="#599540" d="M249.72,738.83c2.96,1.8,5.25,4.01,6.86,6.62,1.61,2.61,2.66,5.35,3.14,8.21.49,2.87.4,5.72-.24,8.55-.65,2.83-1.73,5.4-3.24,7.68-1.51,2.29-3.43,4.17-5.75,5.65-2.32,1.48-4.97,2.26-7.93,2.32-3.74.06-6.88-.76-9.42-2.47-2.55-1.71-4.49-3.88-5.85-6.52-1.35-2.64-2.14-5.52-2.37-8.65-.22-3.12.11-6.05,1.02-8.79.9-2.74,2.38-5.07,4.45-7.01,2.06-1.93,4.64-2.99,7.73-3.19,2.84-.19,4.9-.5,6.19-.92,1.29-.42,2.22-.8,2.81-1.16.58-.35.98-.59,1.21-.72s.69,0,1.4.39ZM238.41,747.23c-.39.39-.71,1.32-.97,2.8-.26,1.48-.44,3.22-.53,5.22-.1,2-.08,4.09.05,6.28.13,2.19.37,4.19.73,5.99.35,1.81.85,3.28,1.5,4.45.64,1.16,1.42,1.68,2.32,1.55.9-.13,1.77-.73,2.61-1.79.84-1.06,1.6-2.38,2.27-3.96s1.22-3.32,1.64-5.22c.42-1.9.67-3.75.77-5.56.1-1.8-.02-3.45-.34-4.93s-.87-2.61-1.64-3.38c-1.8-1.87-3.33-2.88-4.59-3.04-1.25-.16-2.53.37-3.82,1.6Z"/><path fill="#599540" d="M290.6,743.85c.38-4.32.71-8.38.97-12.18.19-3.28.35-6.54.49-9.76.13-3.22.13-5.67,0-7.35-.13-1.61.24-3.09,1.11-4.45s1.88-2.51,3.04-3.48c1.16-.97,2.32-1.71,3.48-2.22,1.16-.51,2-.77,2.51-.77s.82,1.29.92,3.87c.1,2.58.1,5.91,0,10s-.22,8.71-.38,13.87c-.16,5.15-.21,10.34-.14,15.56.06,4.83.35,8.76.87,11.79.52,3.03,1.17,5.4,1.98,7.1.8,1.71,1.66,2.92,2.56,3.62.9.71,1.77,1.18,2.61,1.4.83.23,1.55.37,2.12.43.58.06.97.29,1.16.68.25.58.05,1.32-.63,2.22-.68.9-1.68,1.68-3,2.32-1.32.65-2.88.98-4.69,1.02s-3.71-.5-5.7-1.6c-1.68-.9-2.93-2.11-3.77-3.62-.83-1.51-1.42-3.01-1.74-4.49-.38-1.68-.55-3.42-.48-5.22-1.42,2.58-3.09,4.83-5.03,6.76-.84.84-1.77,1.64-2.8,2.42-1.03.77-2.16,1.45-3.38,2.03-1.22.58-2.54,1.03-3.96,1.35-1.42.32-2.93.42-4.55.29-1.74-.13-3.3-.82-4.69-2.08s-2.54-2.83-3.48-4.73c-.94-1.9-1.61-4.03-2.03-6.38-.42-2.35-.56-4.7-.44-7.06.13-2.35.58-4.61,1.36-6.77.77-2.16,1.9-4.01,3.38-5.56,1.09-1.09,2.25-1.93,3.48-2.51,1.22-.58,2.46-.95,3.72-1.11,1.25-.16,2.51-.16,3.77,0,1.26.16,2.43.4,3.53.72,2.58.77,5.18,2.06,7.83,3.87ZM275.52,752.55c-.58,1.55-.95,3.17-1.11,4.88-.16,1.71-.2,3.27-.1,4.69.1,1.42.31,2.61.63,3.58s.71,1.48,1.16,1.55c.9.26,1.85.07,2.85-.58,1-.64,2.33-1.96,4.01-3.96.77-1.03,1.56-2.29,2.37-3.77.8-1.48,1.48-2.93,2.03-4.35.55-1.42.89-2.67,1.02-3.77.13-1.09-.03-1.74-.49-1.93-.52-.19-1.34-.38-2.47-.58-1.13-.19-2.32-.23-3.58-.1-1.25.13-2.48.5-3.67,1.11-1.19.61-2.08,1.69-2.66,3.24Z"/><path fill="#3f2d20" d="M275.4,799.74c.26.52.23.92-.1,1.21-.32.29-.79.58-1.4.87-.61.29-1.3.64-2.08,1.06s-1.52,1.01-2.22,1.79-1.3,1.77-1.79,3c-.48,1.22-.72,2.77-.72,4.64-.07,1.87.37,3.67,1.3,5.41s2.08,3.43,3.43,5.07c1.36,1.64,2.83,3.25,4.45,4.83,1.61,1.58,3.06,3.19,4.35,4.83,1.29,1.64,2.3,3.32,3.05,5.03.74,1.71.98,3.46.72,5.27-.32,1.8-1.34,3.33-3.04,4.59-1.71,1.26-3.79,2.22-6.23,2.9-2.45.68-5.09,1.05-7.93,1.11-2.84.06-5.49-.18-7.97-.72-2.48-.55-4.62-1.4-6.43-2.56s-2.93-2.64-3.38-4.45c-.71-2.64-.92-4.87-.63-6.67.29-1.8.82-3.3,1.6-4.5.77-1.19,1.64-2.13,2.61-2.8.97-.68,1.8-1.21,2.51-1.6,1.48-.84,2.47-.84,2.95,0,.48.84.17,2.16-.92,3.96-.52.9-.65,1.92-.39,3.04.26,1.13.85,2.19,1.79,3.19s2.13,1.85,3.58,2.56c1.45.71,3.11,1.1,4.98,1.16,1.16.07,2.33-.05,3.53-.34,1.19-.29,2.18-.74,2.95-1.35.77-.61,1.24-1.35,1.4-2.22s-.18-1.85-1.01-2.95c-.84-1.09-2.29-2.48-4.35-4.15-2.06-1.67-4.17-3.53-6.33-5.56-2.16-2.03-4.06-4.19-5.7-6.48-1.64-2.29-2.47-4.59-2.47-6.91,0-4.57.82-7.93,2.47-10.05s4.3-3.51,7.97-4.16c1.81-.32,3.29-.47,4.45-.43,1.16.03,2.08.18,2.75.43.68.26,1.18.57,1.5.92.32.36.58.7.77,1.02Z"/><path fill="#3f2d20" d="M311.84,810.37c-.19.32-.81.4-1.84.24-1.03-.16-2.22-.19-3.58-.1-1.36.1-2.71.52-4.06,1.26-1.35.74-2.45,2.14-3.29,4.21-.77,2.06-1.3,4.25-1.59,6.57-.29,2.32-.29,4.53,0,6.62.29,2.09.83,3.91,1.64,5.46.81,1.55,1.89,2.61,3.24,3.19,1.93.77,3.67,1.03,5.22.77,1.55-.26,2.93-.69,4.16-1.3,1.22-.61,2.27-1.27,3.14-1.98.87-.71,1.56-1.16,2.08-1.35,1.22-.39,1.77.08,1.64,1.4-.13,1.32-1.03,3.01-2.71,5.07-.9,1.16-2.03,2.27-3.38,3.34-1.36,1.06-2.87,1.92-4.54,2.56-1.68.64-3.5,1-5.46,1.06-1.96.06-4.04-.32-6.23-1.16-2.06-.77-3.93-2.03-5.6-3.77-1.68-1.74-3.05-3.75-4.11-6.04-1.06-2.29-1.81-4.75-2.22-7.39-.42-2.64-.39-5.28.1-7.93.48-2.64,1.45-5.2,2.9-7.68s3.46-4.69,6.04-6.62c2.45-1.74,4.85-2.64,7.2-2.71s4.41.26,6.19.97c1.77.71,3.14,1.63,4.11,2.75.97,1.13,1.29,1.98.97,2.56Z"/><path fill="#3f2d20" d="M319.48,836.08c-.07-2.13-.13-5.09-.19-8.89-.07-3.8-.08-7.96-.05-12.47.03-4.51.11-9.13.24-13.87.13-4.74.37-9.07.73-13,.35-3.93.85-7.22,1.49-9.86.64-2.64,1.48-4.15,2.51-4.54,1.81-.64,3.59-.68,5.36-.1,1.77.58,3.37,1.46,4.79,2.66,1.42,1.19,2.59,2.55,3.53,4.06.93,1.51,1.46,2.89,1.6,4.11.71,4,.72,7.6.05,10.83-.68,3.22-1.63,6.19-2.85,8.89s-2.51,5.19-3.86,7.44c-1.36,2.26-2.32,4.45-2.9,6.57,1.61-2.9,3.41-5.35,5.41-7.35.83-.83,1.74-1.61,2.71-2.32.97-.71,2-1.26,3.09-1.64,1.1-.39,2.22-.58,3.38-.58s2.35.32,3.58.97c2,1.03,3.53,2.5,4.59,4.4,1.06,1.9,1.84,4.03,2.32,6.38.49,2.35.79,4.82.92,7.39.13,2.58.28,5.06.44,7.44.16,2.38.43,4.59.82,6.62.38,2.03,1.09,3.66,2.12,4.88,1.48,1.74,2.77,2.95,3.87,3.62,1.09.68,2.03,1.09,2.8,1.26.77.16,1.4.23,1.88.19.48-.03.85.08,1.11.34.19.19.34.4.44.63.1.23.1.45,0,.68s-.37.48-.82.77c-.45.29-1.13.59-2.03.92-1.74.58-3.98.66-6.71.24-2.74-.42-5.66-1.76-8.75-4.01-1.55-1.09-2.72-2.64-3.53-4.64-.81-2-1.43-4.17-1.88-6.52-.45-2.35-.79-4.74-1.02-7.15-.22-2.42-.5-4.62-.82-6.62-.32-2-.79-3.63-1.4-4.88-.61-1.25-1.5-1.91-2.66-1.98-1.16-.06-2.19.37-3.09,1.3-.9.94-1.67,2.19-2.32,3.77-.65,1.58-1.18,3.37-1.6,5.37s-.76,3.96-1.01,5.89c-.26,1.93-.45,3.77-.58,5.51-.13,1.74-.23,3.13-.29,4.15-.07,1.61-.45,2.74-1.16,3.38s-1.53.97-2.46.97-1.92-.21-2.95-.63c-1.03-.42-1.87-.85-2.51-1.3-.71-.52-1.22-1.29-1.54-2.32-.32-1.03-.55-2.06-.68-3.09-.13-1.16-.16-2.45-.1-3.86ZM331.26,801.57c.64-2.38,1.22-4.87,1.74-7.44s.74-4.83.68-6.76c-.13-1.93-.39-3.59-.77-4.98-.38-1.38-.84-2.32-1.35-2.8-.52-.48-1.03-.4-1.55.24-.52.64-.94,2.03-1.26,4.16s-.52,4.69-.58,7.68c-.07,3-.05,5.86.05,8.6s.24,6.01.43,9.81c1.1-3.28,1.97-6.12,2.61-8.5Z"/><path fill="#3f2d20" d="M385.01,807.57c2.96,1.8,5.25,4.01,6.86,6.62,1.61,2.61,2.66,5.35,3.14,8.21.49,2.87.4,5.72-.24,8.55-.65,2.83-1.73,5.4-3.24,7.68-1.51,2.29-3.43,4.17-5.75,5.65-2.32,1.48-4.97,2.26-7.93,2.32-3.74.06-6.88-.76-9.42-2.47-2.55-1.71-4.49-3.88-5.85-6.52-1.35-2.64-2.14-5.52-2.37-8.65-.22-3.12.11-6.05,1.02-8.79.9-2.74,2.38-5.07,4.45-7.01,2.06-1.93,4.64-2.99,7.73-3.19,2.84-.19,4.9-.5,6.19-.92,1.29-.42,2.22-.8,2.81-1.16.58-.35.98-.59,1.21-.72s.69,0,1.4.39ZM373.7,815.98c-.39.39-.71,1.32-.97,2.8-.26,1.48-.44,3.22-.53,5.22-.1,2-.08,4.09.05,6.28.13,2.19.37,4.19.73,5.99.35,1.81.85,3.28,1.5,4.45.64,1.16,1.42,1.68,2.32,1.55.9-.13,1.77-.73,2.61-1.79.84-1.06,1.6-2.38,2.27-3.96s1.22-3.32,1.64-5.22c.42-1.9.67-3.75.77-5.56.1-1.8-.02-3.45-.34-4.93s-.87-2.61-1.64-3.38c-1.8-1.87-3.33-2.88-4.59-3.04-1.25-.16-2.53.37-3.82,1.6Z"/><path fill="#3f2d20" d="M422.02,807.57c2.96,1.8,5.25,4.01,6.86,6.62,1.61,2.61,2.66,5.35,3.14,8.21.49,2.87.4,5.72-.24,8.55-.65,2.83-1.73,5.4-3.24,7.68-1.51,2.29-3.43,4.17-5.75,5.65-2.32,1.48-4.97,2.26-7.93,2.32-3.74.06-6.88-.76-9.42-2.47-2.55-1.71-4.49-3.88-5.85-6.52-1.35-2.64-2.14-5.52-2.37-8.65-.22-3.12.11-6.05,1.02-8.79.9-2.74,2.38-5.07,4.45-7.01,2.06-1.93,4.64-2.99,7.73-3.19,2.84-.19,4.9-.5,6.19-.92,1.29-.42,2.22-.8,2.81-1.16.58-.35.98-.59,1.21-.72s.69,0,1.4.39ZM410.71,815.98c-.39.39-.71,1.32-.97,2.8-.26,1.48-.44,3.22-.53,5.22-.1,2-.08,4.09.05,6.28.13,2.19.37,4.19.73,5.99.35,1.81.85,3.28,1.5,4.45.64,1.16,1.42,1.68,2.32,1.55.9-.13,1.77-.73,2.61-1.79.84-1.06,1.6-2.38,2.27-3.96s1.22-3.32,1.64-5.22c.42-1.9.67-3.75.77-5.56.1-1.8-.02-3.45-.34-4.93s-.87-2.61-1.64-3.38c-1.8-1.87-3.33-2.88-4.59-3.04-1.25-.16-2.53.37-3.82,1.6Z"/><path fill="#3f2d20" d="M466.28,788.33c-.26,2.9-.71,5.67-1.36,8.31-.64,2.64-1.4,5.16-2.27,7.54-.87,2.38-1.82,4.64-2.85,6.76-1.03,2.13-2.06,4.06-3.09,5.8-2.45,4.12-5.15,7.86-8.12,11.21,0,.45.1,1.03.29,1.74.13.64.39,1.43.77,2.37.38.94,1,2.05,1.84,3.34,1.67,2.71,3.53,4.4,5.56,5.08,2.03.68,4,.74,5.9.19,1.9-.55,3.56-1.51,4.98-2.9,1.42-1.38,2.38-2.78,2.9-4.2.52-1.48,1.03-2.45,1.55-2.9.52-.45.98-.56,1.4-.34.42.23.74.7.97,1.4.22.71.3,1.48.24,2.32-1.1,2.9-2.48,5.44-4.16,7.63-.71.97-1.55,1.9-2.51,2.8s-2.03,1.71-3.19,2.42c-1.16.71-2.43,1.27-3.82,1.69-1.39.42-2.89.59-4.49.53-4.12-.06-7.55-1.06-10.29-3-2.74-1.93-4.94-4.41-6.62-7.44-1.68-3.03-2.87-6.46-3.58-10.29-.71-3.83-1.11-7.72-1.21-11.65-.1-3.93.07-7.72.49-11.35.42-3.64.92-6.81,1.5-9.52.64-2.83,1.49-5.64,2.56-8.41,1.06-2.77,2.38-5.22,3.96-7.35s3.44-3.8,5.6-5.02,4.69-1.68,7.59-1.36c2.13.32,3.96,1.06,5.51,2.22,1.29.97,2.39,2.43,3.29,4.4s1.13,4.62.68,7.97ZM447.63,819.45c1.67-2.77,3.22-5.64,4.64-8.6,1.22-2.51,2.42-5.27,3.58-8.26,1.16-3,2-5.94,2.51-8.84.26-1.42.5-2.87.73-4.35.22-1.48.32-2.85.29-4.11-.03-1.26-.28-2.32-.73-3.19-.45-.87-1.19-1.37-2.22-1.5-1.36-.13-2.56.34-3.62,1.4-1.07,1.06-1.97,2.55-2.71,4.45-.74,1.9-1.34,4.16-1.79,6.77s-.77,5.38-.97,8.31c-.19,2.93-.26,5.94-.19,9.04s.23,6.06.49,8.89Z"/><path fill="#711a55" d="M205.32,802.2c-.14.62-.55,1.13-1.22,1.54s-1.43.82-2.29,1.25c-.86.43-1.74.91-2.65,1.43-.91.53-1.67,1.22-2.29,2.08-.95,1.39-1.62,3.03-2,4.94-.38,1.91-.56,3.74-.54,5.48.02,1.74.24,3.25.64,4.51s.92,1.9,1.54,1.9c.76,0,1.56-.36,2.4-1.07.83-.72,1.59-1.54,2.26-2.47s1.22-1.89,1.65-2.87c.43-.98.65-1.73.65-2.26s-.03-1.25-.07-2.18-.03-1.85.03-2.76c.07-.9.22-1.69.43-2.36s.58-1.03,1.11-1.08c.52-.05,1.15-.17,1.9-.36.74-.19,1.44-.22,2.11-.07.67.14,1.21.61,1.61,1.4.41.79.56,2.14.46,4.05-.14,3.87.05,6.79.57,8.77.53,1.98,1.55,3.14,3.08,3.48,1.05.19,1.99-.06,2.83-.75.83-.69,1.59-1.47,2.26-2.33.67-.86,1.24-1.63,1.72-2.33.48-.69.86-.97,1.15-.82.33.14.45.74.36,1.79-.1,1.05-.45,2.23-1.08,3.55s-1.54,2.63-2.76,3.94c-1.22,1.31-2.78,2.33-4.69,3.04-1.01.38-1.94.57-2.79.57s-1.63-.12-2.33-.36c-.69-.24-1.3-.57-1.82-1-.53-.43-1.01-.9-1.43-1.43-.96-1.19-1.72-2.67-2.29-4.44-.48,1.15-1.15,2.15-2.01,3.01-.72.76-1.65,1.47-2.79,2.11s-2.56,1.02-4.23,1.11c-1.67.05-3.25-.48-4.73-1.58-1.48-1.1-2.66-2.58-3.55-4.44s-1.36-4.02-1.43-6.48c-.07-2.46.47-5.05,1.61-7.77.76-1.77,1.77-3.27,3.01-4.51,1.24-1.24,2.57-2.26,3.97-3.04,1.41-.79,2.82-1.36,4.23-1.72,1.41-.36,2.68-.56,3.79-.61,1.12-.05,2.03.03,2.72.25.69.21.99.51.9.89Z"/><path fill="#711a55" d="M221.29,780.93c.14-.86.64-1.34,1.5-1.43s1.77.1,2.72.57c.95.48,1.84,1.16,2.65,2.04.81.88,1.24,1.85,1.29,2.9.04,1.1.09,2.22.14,3.37s.1,2.17.14,3.08c.05,1.1.1,2.12.14,3.08,1.62-.14,3.06-.19,4.3-.14,1.1.05,2.08.19,2.94.43.86.24,1.29.67,1.29,1.29,0,.67-.42,1.24-1.25,1.72-.83.48-1.78.89-2.83,1.22-1.24.38-2.63.72-4.15,1,.09,3.2.19,6.3.28,9.31.05,2.63.06,5.37.03,8.24-.02,2.87-.13,5.37-.32,7.52-.24,2.15-.61,3.72-1.11,4.73-.5,1-1.07,1.65-1.68,1.93-.62.29-1.27.35-1.94.18-.67-.17-1.29-.37-1.86-.61-.28-.1-.55-.6-.79-1.5s-.43-2.08-.57-3.51-.26-3.04-.36-4.83-.17-3.62-.21-5.48c-.14-4.39-.21-9.31-.21-14.75-1.29.29-2.48.43-3.58.43-.96,0-1.84-.16-2.65-.47-.81-.31-1.31-.9-1.5-1.76-.14-.67.16-1.27.9-1.79s1.59-.98,2.54-1.36c1.1-.43,2.39-.81,3.86-1.15v-1.15c0-.33.01-.68.04-1.04.02-.36.03-.66.03-.89,0-1.91-.03-3.46-.07-4.66s-.07-2.18-.07-2.97.02-1.43.07-1.93c.05-.5.14-1.04.29-1.61Z"/><path fill="#711a55" d="M211.41,846.78c-1.15.05-2.52.03-4.12-.04-1.6-.07-3.27-.18-5.01-.32s-3.46-.32-5.15-.54c-1.7-.21-3.19-.45-4.48-.7-1.29-.25-2.32-.51-3.08-.77-.76-.26-1.08-.51-.93-.75.14-.31.75-.56,1.83-.75,1.08-.19,2.37-.35,3.9-.48,1.53-.13,3.2-.23,5.02-.29,1.81-.06,3.54-.11,5.19-.14,1.64-.04,3.12-.07,4.44-.09,1.32-.02,2.23-.05,2.76-.07,1.05-.07,2.32-.13,3.79-.18,1.48-.05,3.02-.08,4.62-.09,1.6-.01,3.2-.01,4.8,0,1.6.01,3.03.03,4.3.07,1.26.03,2.28.08,3.04.12.76.05,1.12.11,1.08.18-.14,1.12-1.01,2-2.61,2.63-1.6.63-3.51,1.1-5.73,1.41-2.22.31-4.56.51-7.02.59-2.46.08-4.67.15-6.63.2Z"/></svg>
