<svg xmlns="http://www.w3.org/2000/svg" viewBox="142.01 220.92 404.00 179.45"><mask id="jepegomi-knockout" maskUnits="userSpaceOnUse" x="142.01" y="220.92" width="404.00" height="179.45"><path fill="#fff" d="M541.51,288c-2.63.71-4.63,1.93-7.49,2.42-1.11.14-1.85-.36-2.97.02-.96.31-1.05,1.23-2.25,1.26-1.26-.03-2.3-2.32-3.23-3.08.76-.92.08-1.03.06-2.32-2.52-.03-3.18-3.01-4.4-3.97-1.41-.97-2.16-1.04-3.47-2.24-1.37-1.39-.6-3.2-1.97-5.07-1.24-1.49-2.91-3.18-3.73-5.23-.02-1.3-.03-2.59-.03-3.92-1.2-.88-3.35-2.4-2.98-4.01-2.44-4.33-4.76-8.48-7.22-12.71,0-.3-.02-.84-.02-1.16l-.42-2.2c-.92-.21-1.81-.45-2.71-.43-2.43-.08-1.06.61-3.64.67-2.78-.08-6.26-1.12-8.83-1.98-1.28-.47-3.04.1-3.79-.71-.23-.32-1.16-.6-1.18-1.64-.42-.02-1.13.05-1.73,0-.07.01-.19-.08-.23-.14-2.47.74-4.27.7-4.34,3.02,0,.36-.01.96-.01,1.43,0,.2-.45.64-.97.9,7.61,11.21,15.85,24.88,8.56,40.49l-.08.16-.09.16c-2.06,3.69-4.77,7.16-7.4,10.51l-.49.63c-5.85,7.1-11.97,12.68-17.48,17.28-.98.85.02-.15-.98.85-.66.85.63,1.69,0,2.46l1.61,3.78c.38.9.58,1.86.58,2.83v3.5c.71,1.43,1.25,2.54,1.8,5.27.32,1.5,1.02,2.21,1.1,3.94.03,2.39-1.74,3.92-2.9,6.03v5.11c.11.13.22.26.32.39,2.7,3.91,4,6.52,4.24,8.81.4.38.74.73.78,1.25-.01.49.07,1.1.07,1.63.27,5.39,2.19,7.36,4.74,9.31.53.45,2.01,3.19,3.52,5.08.4.57.41,1.26-.14,1.7.61.45.61,1.24.65,2.34.12.02.28-.17.7-.23.42.65,1.08,1.07,2.31,1.09,2.7.08,3.36-1.53,6.42-1.58.8.03,1.22.51,2,.53.68,0,1.2-.3,2.15-.37.25-.94,2.64-.43,3.92-.83,2.99-1.13,3.92-2.67,5.83-4.53,1.21-1.11,2.15-1.14,3.85-2.43.85-.76,2.27-2.09,2.35-3.73.02-.49-.4-.9-1.05-1.18.92-1.51-.34-1.28,2.48-2.27.86-.3,2.29-.25,2.99-.92.75-.66,1.07-3.17,1.13-4.37.06-2.37-1.72-1.8-1.7-3.5.03-.9,1.18-1.88,2.27-2.03,1.13-4.26,10.33-3.82,10.84-9-.01-.44-.12-.93-.53-1.29.05-1.41.14-2.79.18-4.31.07-.43.2-1.04.3-1.59.1-.07.58-.71.57-1.04.05-1.29-2.77-2.81-2.76-5.21.1-2.06-1.16-3.85-1.15-6.11.14-1.94,2.01-2.5,2.63-4.33.93-2.77,2.92-2.54,4.8-4.13.72-.66.92-3.32,1.71-3.94,1.95-1.37,3.99-2.58,6.04-4.18,2.86-2.18,3.63-4.1,5.98-7.09,1.82-2.55,5.27-8.59,5.38-12.78.02-.33-.29-.63-.49-1.09Z"/><path fill="#fff" d="M437.86,300.53c-.51-.59-1.04-1.18-1.62-1.8l-.16-.17-.14-.18c-2.25-2.93-3.85-5.3-5.17-7.67l-.13-.24-.11-.25c-3.11-7.37-3.92-14.71-2.47-22.46l.03-.15.04-.15c1.14-4.55,2.95-9.06,4.7-13.42,2.68-6.68,5.24-13.1,5.59-19.56-2.89.62-6.12,1.92-8.36,3.04-.4.2-.91.46-1.46.7-2.89-.83-6.16-1.29-6.94.35l-.37-.72c-.59.73-.91,2.14-1.44,2.79-.34.16-.74.5-1.17.77-1.8,2.2-3.58,2.57-5.45,4.91-.86,1.14-1.17,3.28-1.05,4.22-.78,1.08-1.94,2.75-2.86,3.4-1.21.78-3.37,1.71-4.31,3.06-1.67,2.34-2.84,4.92-3.72,7.64-.45,1.13-1.75,1.96-1.8,3.35-.09,2.77,1.12,4.82,1.1,7.89-.02,1.75-1.07,5-2.37,5.83.47,1,1.43,2.29,1.44,3.24,0,.49.26,1.17.3,2.2h-.18c.22.37.45.56.75.97.03.22,3.1,3.55,3.55,3.92,1.46,1.46,1.86,3.04,3.08,5.14.84,1.36,2.14,1.76,3.65,2.86.28-.03.57-.06.86-.06h14.44c1.22,0,2.37.32,3.38.86.09.13.17.26.26.38.07-.03.13-.06.2-.09.19.12.39.24.57.38-.11-.16-.21-.33-.31-.5,2.38-1.03,5.03-.92,7.66-.46Z"/><path fill="#fff" stroke="#000" stroke-width="4" d="M451.59,354.4c-5.51,2.21-27.3,12.28-61.84.53-20.91-7.11-25.82-18.51-44.86-18.51-9.95,0-22.99,4.73-32.89,15.08-9.9-10.35-22.94-15.08-32.9-15.08-19.04,0-23.95,11.4-44.85,18.51-34.54,11.76-56.33,1.69-61.85-.53,0,0-3.72,5.38-2.86,5.77,11.32,5.1,23.72,7.14,42.27,7.12,20.09-.02,44.18-6.64,53.19-9.36,10-3.02,26.51-2.47,35.34,7.68h23.33c8.83-10.15,25.33-10.7,35.34-7.68,9.01,2.72,33.09,9.34,53.19,9.36,18.54.02,30.94-2.02,42.27-7.12.85-.39-2.87-5.77-2.87-5.77Z"/><path fill="#fff" d="M535.01,338.64c-.25.45-.23,1.64-.55,2.04-1.21,1.16-3.49,3.75-5.13,4.77-2.12,1.24-4.53,1.23-4.8,4.41-.08,1.07.86,2.55.81,3.25.02.12-1.59,2.93-1.59,2.93-.12.01-1.42,1.13-1.49,1.34-.06.91-.12,1.9.63,2.39.05.4-.21.72-.26,1.53-.11,1.6,1.17,3.08,2.89,2.99,4.1-.46,5.08-4.34,6.55-7.24,1.85-3.67,3.59-6.8,4.04-11.61.1,0,.81.14,1.11.23.02-.28.07-.69.08-.97-.52-1.69,0-5.91-2.3-6.07Z"/><path fill="#fff" d="M329.98,335.62c-.17-1.45-.26-2.93-.26-4.44,0-13.49,6.55-24.74,22.62-24.74s22.47,11.25,22.47,24.74c0,4.13-.61,8.04-1.9,11.48-.38-.23-.75-.46-1.13-.7-4.93-3.07-9.7-6.02-15.81-7.7v-6.18h8.31v-7.41h-8.31v-7.14h-7.41v7.14h-8.3v7.41h8.3v4.9c-1.17-.09-2.39-.16-3.67-.16-4.26,0-9.46.85-14.91,2.8ZM311.7,346.22c.21,0,.41-.01.61-.02,3.95-3.56,8.17-6.31,12.36-8.35v-15.9h-17.36v7.64h3.18v7.42c-.33.11-.73.17-1.12.17-3.98,0-5.63-3.32-5.63-10.9s3.18-10.56,9.27-10.56c3.77,0,5.69.56,7.15,1.24l4.51-8.04c-3.71-1.69-7.75-2.47-13.58-2.47-15.76,0-22.78,9.21-22.78,19.78,0,2.86.33,5.56,1.11,7.99,7.16,1.81,15.14,5.57,22.28,12.01ZM440,307c-1,0-5.43.15-5.43.15v48.08h2.97c5.64-1.25,9.65-2.89,11.92-3.83l.54-.22s-1.01-13.89-1.01-20.17c0-7-2-24-9-24ZM390.91,351.53c.2.07.39.13.59.19.29-5.86.75-15.86.75-15.86.13-3.29,0-6.08,0-6.08h.13s.53,2.79,1.53,6.08c0,0,3.84,13.19,5.38,18.15,1.79.46,3.57.86,5.34,1.21h1.73c1.32-4.05,5.77-19.35,5.77-19.35.92-3.08,1.52-6.15,1.52-6.15h.13s-.07,3.15.07,6.15c0,0,.8,16.35.99,19.35h14.57l-4.3-48.08h-14.44l-5.5,19.08c-.79,2.73-1.39,5.31-1.39,5.31h-.13s-.4-2.66-1.12-5.38l-5.03-19h-14.51l-3.47,39.39c3.27,1.77,6.94,3.47,11.41,4.99ZM168.05,363.45c-1.04-.46-1.79-1.36-2.1-2.45-.32-1.14-.71-2.56,3.49-8.63l1.63-2.37,2.67,1.07.79.32c.55.22,1.19.49,1.94.78.09-1.15.14-2.34.14-3.57v-63.48h-22.5v66.33c0,6.52-3.47,9.89-8.1,9.89v16.3c12.11,0,21.51-4,26.54-12.33-1.51-.57-3.01-1.19-4.49-1.85ZM198.07,356.8h8.85c1.24-.07,2.49-.16,3.75-.29v-10.9h-10v-8.37h8.41v-10.9h-8.41v-8.01h10v-11.19h-25.43v47.79c3.56.86,7.85,1.59,12.82,1.87ZM219.37,355.22h-2.53v-45.84c4.04-1.81,9.6-2.93,16.29-2.93,14.57,0,19.6,7.55,19.6,16.21,0,9.44-5.89,16.35-19.94,16.35h-.92v12.92c-4.21,1.38-8.38,2.48-12.5,3.29ZM231.87,329.86h.99c3.91,0,5.23-1.68,5.23-7.27,0-5.03-.92-7.12-4.83-7.12-.53,0-1.06.13-1.39.13v14.26ZM273.4,333.18v-2.74h8.41v-8.49h-8.41v-6.23h10v-8.71h-25.43v31.51c4.46-2.49,9.25-4.53,15.43-5.33Z"/><path fill="#fff" d="M182.36,386.64c-.49,1.69-1.38,4.07-2.3,5.28-1.06,1.38-2.29,2.03-3.8,2.03-1.84,0-2.33-1.11-2.33-1.62,0-.7.43-1.28,1.09-1.28.7,0,1.06.6,1.06,1.01,0,.19-.05.46-.14.61-.07.09-.05.22,0,.29.07.07.24.17.82.17,1.33,0,2.25-2.25,2.83-4.26l3.94-13.65c.24-.8.27-1.5-.89-1.5h-.8c-.14,0-.25-.04-.22-.19l.12-.51c.03-.14.1-.19.25-.19.19,0,1.31.07,3.07.07s2.76-.07,2.98-.07c.17,0,.24.07.22.25l-.09.48c-.03.12-.07.17-.24.17h-.63c-.77,0-1.33.32-1.81,1.99l-3.12,10.94Z"/><path fill="#fff" d="M186.5,386.98c0-2.03,1.33-4.58,3.1-6.32.77-.77,2.08-1.62,3.24-1.62.95,0,1.38.7,1.38,1.28,0,1.19-.89,2.44-2.25,3.15-1.31.65-2.62.92-3.51.99-.12.29-.32,1.09-.32,2.23s.8,1.53,1.26,1.53c1.19,0,2.25-.9,2.76-1.72.06-.07.12-.12.22-.02l.27.22c.12.07.12.14.02.22-.6.85-2.06,2.44-3.92,2.44-1.57,0-2.25-.77-2.25-2.37ZM188.65,383.77c.85.07,4.02-.95,4.02-2.74,0-.48-.24-.92-.77-.92-1.55,0-3.05,2.78-3.25,3.66Z"/><path fill="#fff" d="M194.17,388c0-.34.31-.8.82-.8s.85.37.99.77c.14.41.27.68.87.68.7,0,1.36-.63,1.36-1.48,0-1.04-.72-2.03-1.04-2.81-.17-.41-.73-1.26-.7-2.37,0-1.4,1.33-2.95,3.05-2.95.73,0,1.72.29,1.72,1.23,0,.44-.39.78-.76.78-.29,0-.65-.17-.82-.58-.12-.29-.14-.67-.63-.67s-1.19.65-1.19,1.53.72,1.91.87,2.25c.14.29.91,1.47.91,2.76,0,1.89-1.53,3.02-3.2,3.02-1.4,0-2.27-.56-2.27-1.35Z"/><path fill="#fff" d="M212.5,379.28c.21,0,.27.07.21.22l-1.86,5.03c-.7,1.89-1.01,3-1.01,3.14,0,.22.02.22.19.29.37,0,1.69-1.21,1.89-1.5.05-.08.15-.1.22,0l.25.24c.07.07.07.12,0,.22-.08.1-2.33,2.42-4,2.42-.33,0-.46-.27-.46-.56s1.24-3.32,1.55-4.14l-.14-.07c-1.01,1.48-3.58,4.76-5.98,4.76-.48,0-.87-.41-.9-.99.03-.77.77-2.28,1.72-4.53.63-1.5,1.19-2.64,1.19-3.07,0-.22-.17-.34-.38-.34-.44,0-1.65,1.09-1.89,1.37-.07.08-.14.08-.22,0l-.22-.22c-.07-.04-.07-.12.02-.22.17-.22,2.18-2.32,3.73-2.32.48,0,.7.48.7.87,0,.6-.58,2.03-1.57,4.19-.66,1.42-1.29,2.97-1.29,3.51,0,.27.17.41.41.41,1.28,0,3.85-3.17,4.55-4.19.46-.68.85-1.33,1.11-2.06l.85-2.32c.05-.14.17-.17.34-.17h.99Z"/><path fill="#fff" d="M213.01,388c0-.34.31-.8.82-.8.53,0,.85.37,1,.77.14.41.27.68.87.68.7,0,1.36-.63,1.36-1.48,0-1.04-.73-2.03-1.05-2.81-.17-.41-.72-1.26-.7-2.37,0-1.4,1.34-2.95,3.05-2.95.73,0,1.72.29,1.72,1.23,0,.44-.38.78-.75.78-.29,0-.65-.17-.82-.58-.12-.29-.14-.67-.62-.67s-1.19.65-1.19,1.53.72,1.91.87,2.25c.14.29.92,1.47.92,2.76,0,1.89-1.53,3.02-3.2,3.02-1.4,0-2.27-.56-2.27-1.35Z"/><path fill="#fff" d="M231.5,375.42c.22-.77.31-1.62-.78-1.62h-1.14c-.12,0-.14-.12-.12-.25l.12-.46c.05-.17.1-.19.34-.19s4.55-.07,5.06-.07c2.3,0,3.63.17,4.79,1.14,1.06.9,1.45,1.64,1.45,3.29,0,2.44-2.08,5.13-6.97,5.13-1.07,0-2.08-.17-2.45-.29l-1.18,4.42c-.25.92-.2,1.77.77,1.77h.92c.17,0,.22.09.19.24l-.07.46c-.03.14-.08.19-.29.19-.29,0-1.29-.07-3.22-.07-1.65,0-2.52.07-2.86.07-.14,0-.22-.07-.19-.25l.05-.41c.02-.14.09-.24.27-.24h.51c1.31,0,1.64-.9,1.91-1.94l2.88-10.94ZM231.98,381.22c.39.27,1.07.39,2.06.39,3.63,0,5.06-2.52,5.06-4.55,0-2.88-2.47-3.46-4.11-3.46-.27,0-.78,0-.95.05l-2.06,7.58Z"/><path fill="#fff" d="M240.26,386.98c0-2.03,1.34-4.58,3.1-6.32.77-.77,2.08-1.62,3.24-1.62.94,0,1.38.7,1.38,1.28,0,1.19-.9,2.44-2.25,3.15-1.31.65-2.61.92-3.51.99-.12.29-.31,1.09-.31,2.23s.8,1.53,1.26,1.53c1.19,0,2.25-.9,2.76-1.72.04-.07.12-.12.22-.02l.26.22c.12.07.12.14.03.22-.61.85-2.05,2.44-3.92,2.44-1.57,0-2.25-.77-2.25-2.37ZM242.42,383.77c.85.07,4.01-.95,4.01-2.74,0-.48-.24-.92-.77-.92-1.55,0-3.05,2.78-3.24,3.66Z"/><path fill="#fff" d="M248.9,386.23c0-3.05,2.3-7.19,5.52-7.19,1.63,0,2.59,1.19,2.59,2.83,0,2.66-2.11,7.48-5.62,7.48-1.33,0-2.49-1.28-2.49-3.12ZM256.05,381.51c.02-.75-.41-1.35-1.21-1.35-1.01,0-2.3.92-3.51,2.88-.82,1.31-1.4,2.78-1.4,3.92,0,.77.53,1.23,1.11,1.23,2.52,0,5.01-5.08,5.01-6.68Z"/><path fill="#fff" d="M263.04,377.2c.08-.19.14-.26.32-.33l1.5-.53c.06-.02.12-.02.17-.02s.07.04.07.09,0,.12-.05.19l-1.11,2.52c.14-.03.31-.05.48-.05.17-.02.37-.02.49-.02,2.29,0,3.34,1.64,3.34,3.22,0,1.7-.76,3.44-2.88,5.04-1.07.77-3.05,1.59-5.03,1.81l-1.72,4.79c-.44,1.31-.24,1.65.77,1.65h.68c.12,0,.19.12.17.19l-.17.48c-.05.07-.1.14-.29.14-.27,0-1-.07-2.54-.07-1.67,0-2.32.07-2.59.07-.14,0-.19-.05-.17-.14l.14-.48c.02-.09.04-.19.17-.19h.56c.95,0,1.33-.56,1.84-1.96l4.74-13.05c-1.18.34-2.49,1.55-2.99,2.18-.08.09-.17.07-.22.02l-.27-.24c-.07-.07-.09-.14-.02-.22.85-1.02,1.98-2.13,3.85-2.83l.77-2.25ZM260.62,388.39c2.91-.46,5.93-2.59,5.93-5.57,0-1.86-1.11-2.78-2.18-2.78-.37,0-.61.05-.78.07l-2.97,8.28Z"/><path fill="#fff" d="M274.27,375.12c.37-.92.35-1.52-.36-1.52h-.71c-.17,0-.19-.09-.14-.21l.14-.44c.05-.14.09-.17.24-.17h3.01c.22,0,.29.14.22.36l-5.04,12.8c-.21.56-.8,1.89-.29,1.89.39,0,1.5-.94,1.79-1.26.1-.09.14-.07.22,0l.26.29c.05.05.07.14-.03.25-.12.19-2.37,2.25-3.92,2.25-.31,0-.53-.14-.53-.7,0-.36.61-1.89.9-2.61l4.23-10.92Z"/><path fill="#fff" d="M275.51,386.98c0-2.03,1.34-4.58,3.1-6.32.77-.77,2.08-1.62,3.24-1.62.95,0,1.38.7,1.38,1.28,0,1.19-.9,2.44-2.25,3.15-1.31.65-2.61.92-3.51.99-.12.29-.32,1.09-.32,2.23s.8,1.53,1.26,1.53c1.19,0,2.25-.9,2.76-1.72.05-.07.12-.12.22-.02l.27.22c.12.07.12.14.03.22-.61.85-2.06,2.44-3.92,2.44-1.57,0-2.25-.77-2.25-2.37ZM277.67,383.77c.85.07,4.02-.95,4.02-2.74,0-.48-.25-.92-.78-.92-1.55,0-3.05,2.78-3.24,3.66Z"/><path fill="#fff" d="M303,387.85c-.09.32-.17.41-.43.53-.7.29-2.81,1.09-4.69,1.09-4.26,0-6.95-3-6.95-6.78,0-5.73,4.72-10.16,9.9-10.16,2.08,0,3.43.82,3.92,1.21.31.24.53.29.65.29.34,0,.48-.24.63-.77.02-.1.07-.14.25-.1l.29.07c.09.03.17.07.14.19l-1.38,4.86c-.05.14-.1.17-.29.14l-.32-.04c-.12-.03-.19-.1-.14-.25.53-2.08-.73-4.79-3.75-4.79-4.38,0-7.55,4.5-7.55,9.8,0,3.82,2.25,5.44,4.48,5.44,1.55,0,2.59-.65,3.02-1.01.22-.19.35-.51.44-.82l.48-2.35c.22-.97-.17-1.16-.97-1.16h-.9c-.19,0-.22-.07-.17-.24l.1-.46c.02-.14.07-.19.27-.19.36,0,1.21.07,2.8.07s2.23-.07,2.57-.07c.17,0,.24.07.22.24l-.07.46c-.02.14-.07.19-.22.19h-.39c-.58,0-.94.19-1.09.87l-.85,3.72Z"/><path fill="#fff" d="M306.88,386.23c0-3.05,2.3-7.19,5.52-7.19,1.63,0,2.59,1.19,2.59,2.83,0,2.66-2.11,7.48-5.62,7.48-1.32,0-2.49-1.28-2.49-3.12ZM314.03,381.51c.02-.75-.41-1.35-1.21-1.35-1.01,0-2.3.92-3.51,2.88-.82,1.31-1.4,2.78-1.4,3.92,0,.77.53,1.23,1.11,1.23,2.52,0,5.01-5.08,5.01-6.68Z"/><path fill="#fff" d="M315.53,388c0-.34.31-.8.82-.8s.85.37.99.77c.14.41.27.68.87.68.7,0,1.36-.63,1.36-1.48,0-1.04-.73-2.03-1.05-2.81-.17-.41-.72-1.26-.7-2.37,0-1.4,1.34-2.95,3.05-2.95.73,0,1.72.29,1.72,1.23,0,.44-.38.78-.75.78-.29,0-.65-.17-.82-.58-.12-.29-.14-.67-.62-.67s-1.19.65-1.19,1.53.73,1.91.87,2.25c.14.29.92,1.47.92,2.76,0,1.89-1.53,3.02-3.2,3.02-1.4,0-2.27-.56-2.27-1.35Z"/><path fill="#fff" d="M328.14,377.2c.07-.19.14-.26.32-.33l1.5-.53c.05-.02.12-.02.17-.02.04,0,.07.04.07.09s0,.12-.04.19l-1.11,2.52c.14-.03.31-.05.48-.05.17-.02.36-.02.48-.02,2.3,0,3.34,1.64,3.34,3.22,0,1.7-.75,3.44-2.88,5.04-1.06.77-3.05,1.59-5.03,1.81l-1.71,4.79c-.44,1.31-.25,1.65.77,1.65h.68c.12,0,.19.12.17.19l-.17.48c-.04.07-.09.14-.29.14-.27,0-.99-.07-2.54-.07-1.67,0-2.33.07-2.59.07-.14,0-.19-.05-.17-.14l.14-.48c.02-.09.04-.19.17-.19h.56c.95,0,1.34-.56,1.84-1.96l4.74-13.05c-1.19.34-2.49,1.55-3,2.18-.07.09-.17.07-.22.02l-.27-.24c-.07-.07-.09-.14-.03-.22.85-1.02,1.99-2.13,3.85-2.83l.77-2.25ZM325.71,388.39c2.91-.46,5.93-2.59,5.93-5.57,0-1.86-1.11-2.78-2.18-2.78-.36,0-.6.05-.77.07l-2.98,8.28Z"/><path fill="#fff" d="M334.33,386.98c0-2.03,1.34-4.58,3.1-6.32.77-.77,2.08-1.62,3.24-1.62.95,0,1.38.7,1.38,1.28,0,1.19-.9,2.44-2.25,3.15-1.31.65-2.62.92-3.51.99-.12.29-.32,1.09-.32,2.23s.8,1.53,1.26,1.53c1.19,0,2.25-.9,2.76-1.72.05-.07.12-.12.22-.02l.27.22c.12.07.12.14.03.22-.61.85-2.06,2.44-3.92,2.44-1.57,0-2.25-.77-2.25-2.37ZM336.49,383.77c.85.07,4.02-.95,4.02-2.74,0-.48-.24-.92-.78-.92-1.55,0-3.05,2.78-3.24,3.66Z"/><path fill="#fff" d="M347.58,375.12c.36-.92.33-1.52-.37-1.52h-.7c-.17,0-.19-.09-.14-.21l.14-.44c.05-.14.1-.17.24-.17h2.99c.22,0,.3.14.22.36l-5.03,12.8c-.22.56-.8,1.89-.29,1.89.38,0,1.5-.94,1.79-1.26.09-.09.14-.07.22,0l.27.29c.04.05.07.14-.02.25-.12.19-2.37,2.25-3.92,2.25-.32,0-.53-.14-.53-.7,0-.36.6-1.89.89-2.61l4.24-10.92Z"/><path fill="#fff" d="M359.85,375.2c.1-.27.17-.58.17-.8,0-.46-.56-.68-1.26-.68h-.87c-.22,0-.31-.09-.29-.24l.1-.41c.05-.17.1-.25.26-.25.24,0,1.24.07,4.75.07.38,0,.43.15.48.56l1.16,11.69c.07.63.3.63.61.19l8.54-12.05c.17-.24.32-.39.64-.39,2.68,0,3.46-.07,3.77-.07.17,0,.24.07.22.19l-.09.51c-.02.14-.08.19-.25.19h-.72c-.58,0-.9.61-1.24,1.79l-3.12,11.28c-.26,1.04.09,1.5.73,1.5h.75c.14,0,.2.07.17.19l-.09.51c-.03.14-.06.19-.29.19-.29,0-1.09-.07-2.81-.07-1.96,0-2.91.07-3.15.07-.22,0-.24-.07-.22-.25l.05-.41c.03-.14.07-.24.27-.24h.63c1.21,0,1.72-.68,2.01-1.72l3.25-11.69c.09-.39-.22-.39-.39-.14l-9.92,14.01c-.37.53-.92.53-.97-.17l-1.38-13.63c-.05-.46-.27-.46-.39-.12l-3.97,11.74c-.48,1.4,0,1.72.53,1.72h.85c.17,0,.19.07.17.24l-.07.46c-.02.12-.09.19-.29.19-.27,0-1.01-.07-2.49-.07-1.36,0-2.08.07-2.35.07-.12,0-.17-.07-.14-.19l.1-.51c.02-.15.04-.19.17-.19h.48c1.31,0,1.62-.7,1.96-1.67l3.96-11.42Z"/><path fill="#fff" d="M377.84,388.75c0-.56.41-1.67,1.42-4.38l.7-1.89c.25-.65.44-1.14.44-1.42,0-.22-.15-.32-.34-.32-.41,0-1.55,1.31-1.94,1.7-.1.09-.19.09-.27.02l-.19-.22c-.1-.07-.14-.12-.08-.22.1-.14,2.57-3.05,4.12-2.98.29,0,.58.19.58.61,0,.43-.39,1.52-.82,2.68l-1.4,3.68c-.34.9-.43,1.43-.43,1.6,0,.22.07.36.27.41.51-.1,1.81-1.48,1.94-1.69.04-.07.14-.07.26.04l.19.17c.1.12.12.17.04.29-.14.19-2.08,2.52-4.09,2.52-.25-.02-.41-.22-.41-.61ZM380.89,374.64c0-.66.51-1.21,1.26-1.21.85,0,1.28.61,1.28,1.16,0,.36-.29,1.21-1.28,1.21-1.07,0-1.26-.9-1.26-1.16Z"/><path fill="#fff" d="M384.71,389.12c-.27,0-.32-.05-.27-.22l1.72-4.48c.58-1.5,1.26-3.24,1.26-3.65,0-.25-.1-.41-.37-.41-.46,0-1.61,1.16-2.03,1.62-.08.07-.14.07-.25-.02l-.22-.22c-.09-.09-.12-.14-.05-.24.37-.43,2.15-2.44,3.9-2.44.56,0,.78.41.78.72,0,.75-1.05,3.05-1.24,3.61l.09.05c.73-1.16,3.36-4.38,5.52-4.38.72,0,1.21.36,1.21.99,0,1.07-.56,2.33-1.36,4.29-.66,1.6-1.24,2.95-1.24,3.34,0,.14.1.31.29.31.37,0,1.43-.9,1.75-1.24.09-.07.19-.04.27.05l.17.19c.1.09.12.14.02.27-.29.39-2.25,2.1-3.87,2.1-.31,0-.58-.12-.58-.48,0-.46.87-2.37,1.63-4.45.33-.94,1.21-2.95,1.21-3.48,0-.34-.17-.56-.61-.56-.95,0-3.34,2.23-4.4,3.95-.44.7-.82,1.33-1.45,3.02l-.6,1.63c-.06.09-.1.14-.35.14h-.94Z"/><path fill="#fff" d="M397.35,388.75c0-.56.41-1.67,1.43-4.38l.7-1.89c.25-.65.43-1.14.43-1.42,0-.22-.14-.32-.34-.32-.41,0-1.55,1.31-1.93,1.7-.1.09-.2.09-.27.02l-.2-.22c-.09-.07-.14-.12-.07-.22.09-.14,2.56-3.05,4.11-2.98.29,0,.58.19.58.61,0,.43-.38,1.52-.82,2.68l-1.41,3.68c-.34.9-.43,1.43-.43,1.6,0,.22.07.36.26.41.51-.1,1.82-1.48,1.94-1.69.06-.07.14-.07.27.04l.19.17c.09.12.12.17.05.29-.14.19-2.08,2.52-4.09,2.52-.24-.02-.41-.22-.41-.61ZM400.4,374.64c0-.66.51-1.21,1.26-1.21.85,0,1.29.61,1.29,1.16,0,.36-.29,1.21-1.29,1.21-1.06,0-1.26-.9-1.26-1.16Z"/><path fill="#fff" d="M402.78,388c0-.34.31-.8.82-.8.53,0,.85.37,1,.77.14.41.27.68.87.68.7,0,1.36-.63,1.36-1.48,0-1.04-.73-2.03-1.05-2.81-.17-.41-.72-1.26-.7-2.37,0-1.4,1.34-2.95,3.05-2.95.72,0,1.72.29,1.72,1.23,0,.44-.38.78-.75.78-.29,0-.65-.17-.82-.58-.12-.29-.14-.67-.62-.67s-1.19.65-1.19,1.53.72,1.91.87,2.25c.15.29.92,1.47.92,2.76,0,1.89-1.52,3.02-3.19,3.02-1.4,0-2.27-.56-2.27-1.35Z"/><path fill="#fff" d="M413.93,380.59h-1.69c-.14,0-.19-.05-.14-.19l.19-.53c.05-.12.12-.17.27-.17h1.74l1.26-2.81c.12-.25.19-.29.38-.36.26-.07.9-.32,1.09-.41.14-.07.27-.14.37-.14.14,0,.19.14.02.48l-1.6,3.24h2.47c.12,0,.17.07.1.27l-.22.51c-.03.07-.12.12-.22.12h-2.47l-2.35,5.45c-.29.67-.56,1.28-.56,1.55s.1.41.32.41c.7,0,2.28-1.38,2.42-1.55.07-.1.14-.08.22,0l.27.28c.07.07.07.12.02.22-.32.38-2.57,2.39-4.42,2.39-.61,0-.78-.24-.78-.58,0-.36.12-.77.27-1.14l3.05-7.05Z"/><path fill="#fff" d="M419.19,389.12c-.17,0-.27-.1-.22-.22l1.36-3.92c.43-1.35,1.19-3.9,1.19-4.24,0-.22-.2-.36-.41-.36-.49,0-1.58,1.09-1.91,1.5-.05.07-.14.04-.19,0l-.24-.25c-.05-.05-.05-.12,0-.19.51-.76,1.96-2.4,3.61-2.4.48,0,.68.41.68.85.02.46-.39,1.81-.88,3.43l.12.05c.66-1.35,2.59-4.33,3.95-4.33.71,0,1.14.43,1.14,1.09s-.49,1.11-.95,1.11c-.22,0-.41-.05-.61-.24-.19-.19-.32-.29-.63-.29-.65,0-2,2.08-2.97,3.68-.29.46-.58,1.01-.95,2.1l-.8,2.44c-.04.17-.12.17-.31.17h-.97Z"/><path fill="#fff" d="M428.24,388.75c0-.56.41-1.67,1.43-4.38l.7-1.89c.24-.65.43-1.14.43-1.42,0-.22-.14-.32-.34-.32-.41,0-1.55,1.31-1.94,1.7-.09.09-.19.09-.27.02l-.19-.22c-.1-.07-.14-.12-.08-.22.1-.14,2.57-3.05,4.12-2.98.29,0,.58.19.58.61,0,.43-.38,1.52-.82,2.68l-1.4,3.68c-.33.9-.43,1.43-.43,1.6,0,.22.07.36.27.41.51-.1,1.81-1.48,1.94-1.69.04-.07.14-.07.27.04l.19.17c.1.12.12.17.05.29-.14.19-2.08,2.52-4.09,2.52-.24-.02-.41-.22-.41-.61ZM431.29,374.64c0-.66.51-1.21,1.26-1.21.85,0,1.29.61,1.29,1.16,0,.36-.3,1.21-1.29,1.21-1.06,0-1.26-.9-1.26-1.16Z"/><path fill="#fff" d="M434.44,386.98c0-2.03,1.33-4.58,3.1-6.32.77-.77,2.08-1.62,3.24-1.62.94,0,1.38.7,1.38,1.28,0,1.19-.89,2.44-2.25,3.15-1.3.65-2.61.92-3.51.99-.12.29-.31,1.09-.31,2.23s.8,1.53,1.26,1.53c1.18,0,2.25-.9,2.76-1.72.05-.07.12-.12.22-.02l.27.22c.12.07.12.14.02.22-.6.85-2.05,2.44-3.92,2.44-1.57,0-2.25-.77-2.25-2.37ZM436.59,383.77c.85.07,4.02-.95,4.02-2.74,0-.48-.24-.92-.77-.92-1.55,0-3.04,2.78-3.24,3.66Z"/><path fill="#fff" d="M442.11,388c0-.34.32-.8.82-.8.53,0,.85.37.99.77.14.41.27.68.87.68.7,0,1.35-.63,1.35-1.48,0-1.04-.72-2.03-1.04-2.81-.17-.41-.73-1.26-.7-2.37,0-1.4,1.33-2.95,3.05-2.95.72,0,1.71.29,1.71,1.23,0,.44-.39.78-.75.78-.29,0-.66-.17-.82-.58-.12-.29-.14-.67-.63-.67s-1.18.65-1.18,1.53.72,1.91.87,2.25c.14.29.92,1.47.92,2.76,0,1.89-1.53,3.02-3.19,3.02-1.41,0-2.28-.56-2.28-1.35Z"/><path fill="#fff" stroke="#000" stroke-width="4" d="M467.91,246.92c1.09,9.1-3.9,16.28-9.2,23.12.44-1.33.83-2.65,1.16-3.96,3.37-17.99-7.99-30.4-17.53-41.16,4.55,15.75-5.89,29.91-9.36,43.75-1.38,7.38-.28,13.83,2.16,19.6,1.39,2.49,3.04,4.81,4.77,7.06,3.3,3.56,6.33,7.36,8.44,11.48.05.08.1.16.15.24.08.16.13.32.21.48.16.34.31.7.47,1.04.21.47.39.93.55,1.41.07.19.16.37.22.56.49,1.22.83,2.46.99,3.73.02.11.05.22.07.32,6.75-5.48,13.43-11.42,19.59-18.91,2.71-3.46,5.42-6.86,7.39-10.39,6.68-14.33-2.46-27.24-10.08-38.37Z"/></mask><rect x="142.01" y="220.92" width="404.00" height="179.45" fill="#fff" mask="url(#jepegomi-knockout)"/></svg>
