<svg xmlns="http://www.w3.org/2000/svg" viewBox="980.01 183.99 271.64 260.31"><path fill="#333" d="M996.42,387.37v-6.94h15.54v6.94h-3.2v11.71c0,6.9-.76,8.99-2.45,10.68-1.42,1.42-3.2,1.83-7.21,1.83h-5.43c-4.01,0-5.79-.4-7.21-1.83-1.7-1.69-2.45-3.78-2.45-10.73h8.86c0,3.7.13,4.41.53,4.81.36.36,1.16.44,2.67.44h.36c1.51,0,2.31-.09,2.67-.44.4-.4.54-1.25.54-4.14v-12.33h-3.2Z"/><path fill="#333" d="M1016.32,387.37v-6.94h27.73v11.35h-7.79v-4.49h-7.52v5.3h6.45v6.41h-6.45v5.74h7.66v-5.08h7.79v11.93h-27.86v-6.94h3.29v-17.27h-3.29Z"/><path fill="#333" d="M1075.66,398.94c-1.2,1.25-3.07,1.69-5.83,1.69h-8.06v4.01h3.52v6.94h-15.94v-6.94h3.3v-17.27h-3.3v-6.94h20.48c2.76,0,4.63.44,5.83,1.69,1.43,1.47,2.01,3.03,2.01,8.41s-.58,6.94-2.01,8.41ZM1065.6,394.04c1.29,0,1.78-.09,2.05-.36.4-.45.49-1.11.49-3.03s-.09-2.58-.49-3.03c-.27-.27-.76-.35-2.05-.35h-3.83v6.77h3.83Z"/><path fill="#333" d="M1082.34,387.37v-6.94h27.74v11.35h-7.79v-4.49h-7.52v5.3h6.46v6.41h-6.46v5.74h7.66v-5.08h7.79v11.93h-27.87v-6.94h3.3v-17.27h-3.3Z"/><path fill="#333" d="M1134.48,391.11c-.05-2.49-.18-2.98-.49-3.29-.22-.22-.63-.36-1.96-.36h-3.92c-1.38,0-1.78.09-2.04.36-.4.4-.54,1.91-.54,8.19s.14,7.88.54,8.28c.26.27.67.36,2.04.36h4.14c1.25,0,1.74-.09,2-.36.31-.31.49-1.42.49-3.65v-.22h-5.87v-6.32h14.82v3.78c0,7.52-.85,10.24-2.58,11.97-1.29,1.29-2.99,1.74-5.88,1.74h-10.68c-3.25,0-4.59-.49-5.79-1.69-1.82-1.78-2.85-5.3-2.85-13.89s1.02-12.11,2.85-13.89c1.2-1.2,2.54-1.69,5.79-1.69h10.72c3.03,0,4.81.53,5.88,1.6,1.65,1.65,2.18,3.38,2.27,9.08h-8.95Z"/><path fill="#333" d="M1169.06,380.42c3.25,0,4.59.49,5.79,1.69,1.82,1.78,2.85,5.3,2.85,13.89s-1.02,12.11-2.85,13.89c-1.21,1.2-2.54,1.69-5.79,1.69h-10.86c-3.25,0-4.58-.49-5.79-1.69-1.82-1.78-2.85-5.3-2.85-13.89s1.02-12.11,2.85-13.89c1.21-1.2,2.54-1.69,5.79-1.69h10.86ZM1159.72,404.1c.27.27.71.36,2.05.36h3.74c1.34,0,1.78-.09,2.05-.36.31-.31.53-1.29.53-8.1s-.23-7.79-.53-8.1c-.27-.27-.71-.36-2.05-.36h-3.74c-1.34,0-1.78.09-2.05.36-.31.31-.53,1.29-.53,8.1s.23,7.79.53,8.1Z"/><path fill="#333" d="M1194.49,389.46v15.18h2.49v6.94h-14.02v-6.94h3.29v-17.27h-3.29v-6.94h16.83c1.38,0,2,.4,2.27,1.82l2.81,14.56h.4l2.81-14.56c.27-1.42.89-1.82,2.27-1.82h16.6v6.94h-3.3v17.27h3.3v6.94h-14.91v-6.94h2.49v-15.18h-.44l-4.72,20.34c-.31,1.33-.85,1.78-2,1.78h-5.7c-1.16,0-1.7-.45-2-1.78l-4.72-20.34h-.44Z"/><path fill="#333" d="M1247.65,404.64v6.94h-15.98v-6.94h3.43v-17.27h-3.43v-6.94h15.98v6.94h-3.43v17.27h3.43Z"/><path fill="#bf872d" d="M1059.82,440.15l-1.34-3.53h-7.71l-1.34,3.53h-3.16l7.16-17.58h2.39l7.16,17.58h-3.15ZM1054.69,426.55l-3.04,7.8h6.01l-2.96-7.8Z"/><path fill="#bf872d" d="M1074.52,440.3c-2.03,0-3.78-.67-5.13-1.88-1.92-1.73-1.89-3.68-1.89-7.06s-.03-5.33,1.89-7.06c1.35-1.21,3.1-1.88,5.13-1.88,3.59,0,6.28,1.9,6.97,5.41h-3.02c-.47-1.78-1.78-3.01-3.95-3.01-1.15,0-2.19.4-2.88,1.06-.96.94-1.18,1.95-1.18,5.48s.22,4.54,1.18,5.48c.68.67,1.73,1.06,2.88,1.06,2.17,0,3.51-1.23,3.98-3.01h2.99c-.66,3.5-3.43,5.41-6.97,5.41Z"/><path fill="#bf872d" d="M1099.13,440.15l-1.34-3.53h-7.71l-1.34,3.53h-3.15l7.16-17.58h2.38l7.16,17.58h-3.15ZM1094,426.55l-3.05,7.8h6.01l-2.96-7.8Z"/><path fill="#bf872d" d="M1119.7,438.49c-1.23,1.11-3.02,1.65-5.05,1.65h-6.86v-17.58h6.86c2.03,0,3.82.54,5.05,1.66,2.11,1.9,1.98,4.47,1.98,7.01s.14,5.36-1.98,7.26ZM1117.67,426.15c-.82-.81-1.92-1.19-3.32-1.19h-3.59v12.79h3.59c1.4,0,2.5-.37,3.32-1.18,1.02-1.01,1.04-2.91,1.04-5.33s-.03-4.07-1.04-5.08Z"/><path fill="#bf872d" d="M1128.81,440.15v-17.58h12.48v2.39h-9.52v5.14h8.12v2.37h-8.12v5.28h9.52v2.4h-12.48Z"/><path fill="#bf872d" d="M1162.37,440.15v-11.75l-4.5,8.56h-2.19l-4.61-8.56v11.75h-2.96v-17.58h2.96l5.71,10.94,5.6-10.94h2.96v17.58h-2.96Z"/><path fill="#bf872d" d="M1179.53,432.92v7.23h-2.96v-7.23l-5.85-10.34h3.24l4.09,7.73,4.09-7.73h3.24l-5.84,10.34Z"/><path fill="#711a55" d="M1133.15,358.06c1.97-.93,3.96-1.75,5.99-2.53,2.09-.81,4.24-1.45,6.38-2.07,2.17-.63,4.37-1.19,6.58-1.64,2.22-.45,4.42-.85,6.65-1.21,2.19-.36,4.4-.59,6.59-.86,2.17-.17,4.34-.4,6.5-.49,1.73-.07,3.45-.14,5.18-.21,1.39-.06,2.61-.99,2.95-2.36.38-1.51-.46-3.1-1.9-3.66-1.18-.45-2.6,0-3.79.19-1.93.32-3.84.63-5.76,1.01.11-.02.15-.03-.04,0-.69.14-.39.08-.12.02-2.12.44-4.23.88-6.34,1.4-2.2.54-4.36,1.14-6.53,1.77-4.31,1.25-8.53,2.86-12.63,4.66-2.79,1.22-5.46,2.67-8.1,4.16-1.25.71-2.44,1.53-3.63,2.33-.88.61-1.77,1.26-2.58,1.97.06-.03.13-.05.2-.07,1.39-.93,2.91-1.73,4.41-2.44h0ZM1123.19,358.06c1.76-1.32,3.56-2.57,5.42-3.75,3.23-2.05,6.62-3.76,10.09-5.38,4.09-1.92,8.4-3.33,12.72-4.64,3.72-1.13,7.55-1.85,11.35-2.59,1.48-.29,2.6-1.54,2.6-3.08,0-1.66-1.36-3.05-3.02-3.1-.54-.02-1.03.14-1.53.31-.84.27-1.67.55-2.51.82-2.06.68-4.07,1.43-6.09,2.2-4.24,1.62-8.36,3.64-12.32,5.87-3.26,1.84-6.45,3.85-9.44,6.11-2.37,1.8-4.7,3.65-6.85,5.72-1.02.99-2.05,1.99-3.01,3.05-.78.86-1.58,1.73-2.22,2.71.12-.15.24-.29.38-.42,1.32-1.41,2.88-2.67,4.42-3.82h0ZM1118.57,357.08c-1.86-1.17-3.77-2.24-5.72-3.28-1.97-1.05-4.02-1.96-6.08-2.83-2.05-.87-4.13-1.71-6.25-2.41-2.16-.72-4.32-1.41-6.5-2.05-2.14-.62-4.29-1.14-6.46-1.67-4.02-.99-8.12-1.62-12.2-2.29-.72-.12-1.41-.17-2.11.12-.86.35-1.54,1.09-1.8,1.99-.57,1.92.86,3.91,2.85,4,1.53.06,3.06.12,4.6.19,2.15.09,4.3.28,6.45.46,2.22.18,4.46.45,6.65.81,2.21.36,4.41.73,6.6,1.18,4.41.9,8.8,2.08,13.04,3.62,2.04.74,4.02,1.58,5.99,2.47,1.72.8,3.42,1.68,5,2.72.07.03.13.05.2.07-1.32-1.15-2.79-2.17-4.27-3.1h0ZM1063.44,340.69c3.58.7,7.18,1.38,10.69,2.39,4.34,1.24,8.57,2.76,12.72,4.53,2.08.88,4.09,1.93,6.09,2.97,1.37.72,2.73,1.48,4.03,2.3,3.59,2.26,7.12,4.69,10.17,7.65.26.25.51.51.74.79-1-1.54-2.36-2.88-3.63-4.2-1.53-1.58-3.17-3.07-4.87-4.46-2.85-2.35-5.81-4.53-8.95-6.5-3.9-2.45-7.95-4.64-12.15-6.51-2.07-.92-4.15-1.76-6.27-2.57-1.91-.73-3.85-1.35-5.79-1.99-.7-.23-1.45-.56-2.2-.56-1.02,0-2,.51-2.57,1.35-1.25,1.81-.19,4.39,1.96,4.81h0Z"/><path fill="#711a55" d="M1122.36,200.43c.62,5.14-2.2,9.2-5.2,13.06.25-.75.47-1.5.65-2.24,1.9-10.16-4.51-17.17-9.9-23.26,2.57,8.9-3.33,16.9-5.29,24.72-.78,4.17-.16,7.81,1.22,11.07.79,1.41,1.72,2.72,2.7,3.99,1.87,2.01,3.58,4.16,4.77,6.49.03.05.06.09.08.14.04.09.07.18.12.27.09.19.18.39.26.59.12.26.22.53.31.79.04.11.09.21.13.32.28.69.47,1.39.56,2.11.01.06.03.12.04.18,3.81-3.09,7.59-6.45,11.07-10.68,1.53-1.95,3.06-3.88,4.17-5.87,3.78-8.09-1.39-15.39-5.7-21.68Z"/><path fill="#bf872d" d="M1134.55,242.24c-12.46,1.79-25,1.79-37.46,0-.73.77-1.14,2.2-.93,3.71.28,2.05,1.27,3.89,2.51,4.03.44.05.87.08,1.3.12-.05.2-.05.4,0,.61.23.86,1.02,1.64,2.02,1.7,9.17.52,18.46.52,27.64,0,1-.06,1.79-.83,2.02-1.7.06-.21.05-.42.01-.61.43-.4.87-.08,1.3-.12,1.24-.13,2.23-1.98,2.51-4.03.2-1.5-.19-2.94-.93-3.7Z"/><path fill="#bf872d" d="M1127.57,254.41c-4.8.28-7.24.36-11.95.35h0c-4.63,0-6.93-.07-11.55-.35-.59.33-.9.94-.73,1.57.24.86,1.04,1.61,2.05,1.66,3.32.17,6.64.26,9.96.27h0s.1,0,.15,0h.12c3.55,0,7.09-.09,10.64-.27,1.01-.05,1.81-.81,2.05-1.66.18-.63-.14-1.24-.73-1.57Z"/><path fill="#bf872d" d="M1121.57,320.44c-1.3.07-1.94.1-3.24.13-2.19.05-3.29.05-5.48-.01-1.11-.03-1.66-.06-2.76-.12-.42.24-.63.67-.49,1.11.17.54.66,1.02,1.27,1.14,0,.13,0,.27.04.4.15.61.53,1.14,1.03,1.35v.1c.12,0,.25,0,.38,0,0,0,.01,0,.02,0,.64.03,1.29.03,1.93.04.49,0,.97.03,1.46.03,1.18,0,2.36-.02,3.54-.07h0s.04,0,.06,0c.68-.03,1.25-.69,1.43-1.46.03-.14.05-.27.04-.4.62-.12,1.1-.59,1.27-1.13.14-.44-.08-.87-.49-1.11Z"/><path fill="#333" d="M1173.9,237.84c-13.07-7.82-25.66-10.86-37.46-12.24-.14.35-.29.69-.45,1.04l-.11.24-.13.23c-.91,1.63-1.95,3.13-3.04,4.58,11.7,1.1,23.77,3.6,36.48,10.87-.23,6.77-.96,13.25-2.06,19.42,1.48.87,2.75,1.98,3.7,3.28.73.99,1.26,2.08,1.59,3.24,1.87-8.55,3.06-17.71,3.27-27.43l.05-2.13-1.83-1.09Z"/><path fill="#333" d="M1097.94,231.78c-.59-.86-1.19-1.8-1.76-2.81l-.2-.36-.16-.38c-.36-.86-.67-1.73-.94-2.6-11.7,1.4-24.17,4.46-37.14,12.2l-1.83,1.09.05,2.13c.21,9.72,1.41,18.87,3.28,27.41.34-1.14.86-2.23,1.58-3.21.96-1.31,2.23-2.42,3.71-3.29-1.11-6.17-1.84-12.64-2.07-19.41,12.35-7.07,24.1-9.63,35.48-10.78Z"/><path fill="#333" d="M1141.13,322.41c-4.77,6.63-9.46,12.13-13.57,16.51-3.02-.95-5.61-3.36-7.75-7.13-.02-1.91-.04-4.38-.05-5.44-2.63.07-5.26.08-7.89,0-.02,1.06-.03,3.52-.05,5.43-2.12,3.72-4.66,6.1-7.61,7.09-4.02-4.27-8.8-9.81-13.62-16.48-.63-.87-1.27-1.78-1.91-2.71-2.3.43-4.58.93-6.84,1.42,1.19,1.78,2.36,3.47,3.52,5.07,7.34,10.17,14.61,17.83,19.42,22.46,2.76,2.66,5.02,4.63,6.43,5.81,2.73,2.29,3.3,2.77,4.74,2.77h1.23l.98-.74c.58-.43,14.23-10.85,28.22-30.29,1.15-1.6,2.32-3.29,3.5-5.07-2.26-.49-4.54-.98-6.84-1.42-.64.93-1.27,1.84-1.9,2.72Z"/><path fill="#599540" d="M1103.11,289.33c-1,0-1.81-.66-1.81-1.48l-.97-6.81c0-.82.81-1.48,1.81-1.48h8.46c-.22-4.52-.44-9.03-.68-13.54-6.64-5.17-15.76-6.59-24.09-6.44-.08,0-.16,0-.24.02-2.8.39-3.75,2.74-3.46,4.51,2.23,13.77,4.22,27.83,6.21,41.75.31,2.18,1.91,3.87,3.64,3.83,7.46.11,14.33,1.8,19.08,6.43.29.28.61.41.92.41-.22-9.18-.55-18.22-.93-27.18h-7.94Z"/><path fill="#599540" d="M1146.05,259.59c-.08,0-.16-.01-.24-.02-8.33-.15-17.46,1.27-24.09,6.44-.24,4.51-.47,9.02-.68,13.54h8.45c1,0,1.81.66,1.81,1.48l-.96,6.81c0,.82-.81,1.48-1.81,1.48h-7.93c-.39,8.96-.71,18-.93,27.18.31,0,.63-.13.92-.41,4.75-4.63,11.61-6.31,19.07-6.43,1.73.05,3.33-1.64,3.64-3.83,2-13.93,3.98-27.98,6.21-41.75.29-1.77-.66-4.13-3.45-4.51Z"/><path fill="#cfdbc1" d="M1172.53,276.59c-1.07-.15-2.16-.3-3.26-.43-2.65,11.01-5.2,22.1-7.77,33.08-.5,2.13-2.55,3.74-5.08,4.35,2.5.21,5.02.47,7.43.83,2.4.35,5.99.14,6.87-1.98,2.91-10.45,5.91-20.86,8.99-31.26.45-2.65-4.44-4.19-7.18-4.58Z"/><path fill="#cfdbc1" d="M1059.11,276.59c1.07-.15,2.16-.3,3.26-.43,2.65,11.01,5.2,22.11,7.77,33.08.5,2.13,2.55,3.74,5.08,4.35-2.51.21-5.02.47-7.43.83-2.4.35-5.99.14-6.87-1.98-2.91-10.45-5.92-20.86-8.99-31.26-.45-2.65,4.44-4.19,7.18-4.58Z"/><path fill="#9cc688" d="M1160.23,267.3c-.12-.01-.24-.03-.36-.04-1.91-.17-3.87-.28-5.84-.36-2.22,13.09-4.49,26.26-6.49,39.3-.34,2.16-1.93,4.62-4.68,5.33,3.04-.09,6.12,0,9.1.23,2.53.2,4.9-1.07,5.34-3.01,2.73-12.18,5.32-24.65,8.09-36.95.41-2.29-2.25-4.11-5.15-4.49Z"/><path fill="#9cc688" d="M1071.42,267.3c.11-.01.24-.03.35-.04,1.91-.17,3.87-.28,5.84-.36,2.23,13.09,4.48,26.26,6.49,39.3.33,2.16,1.93,4.61,4.68,5.33-3.04-.1-6.12,0-9.1.23-2.52.2-4.9-1.07-5.34-3.01-2.72-12.18-5.32-24.65-8.08-36.95-.41-2.29,2.25-4.11,5.16-4.49Z"/></svg>
